<svg width="72" height="72" viewBox="0 0 72 72" fill="none" xmlns="http://www.w3.org/2000/svg">
<g clip-path="url(#clip0_1430_11396)">
<path d="M71.9983 35.9993C71.9983 55.8814 55.8829 72 35.999 72C16.1195 72 0.00195312 55.8803 0.00195312 35.9993C0.00195312 16.1183 16.1195 0 35.9994 0C55.8832 0 71.9983 16.1169 71.9983 35.9993Z" fill="#515151"/>
<path d="M67.1717 35.9993C67.1717 53.2145 53.2152 67.1727 35.9989 67.1727C18.7855 67.1727 4.82794 53.2145 4.82794 35.9993C4.82794 18.7841 18.7848 4.83087 35.9993 4.83087C53.2145 4.83087 67.1717 18.7837 67.1717 35.9993Z" fill="white"/>
<path d="M67.1718 35.9995C67.1718 53.2146 53.2154 67.1729 35.9991 67.1729C18.7857 67.1729 4.82812 53.2146 4.82812 35.9995C4.82812 18.7843 18.785 4.83105 35.9995 4.83105C53.2147 4.83105 67.1718 18.7839 67.1718 35.9995Z" fill="white"/>
<path fill-rule="evenodd" clip-rule="evenodd" d="M36.17 35.8243L36.17 35.1698V4.83148C47.0188 4.8893 56.5458 10.4863 62.0836 18.9392L36.17 35.8243Z" fill="#7EADFB"/>
<path d="M36.8741 7.93085H35.1288V13.9133H36.8741V7.93085Z" fill="black"/>
<path d="M13.9122 35.1288H7.92719V36.8698H13.9122V35.1288Z" fill="black"/>
<path d="M36.8741 58.086H35.1288V64.0735H36.8741V58.086Z" fill="black"/>
<path d="M64.0735 35.1288H58.086V36.8698H64.0735V35.1288Z" fill="black"/>
<path d="M50.3751 25.4434L35.4556 35.162C34.9955 35.4669 34.8637 36.0854 35.1662 36.5455C35.4686 37.0081 36.087 37.1391 36.546 36.8367L51.4666 27.1156L50.3751 25.4434Z" fill="black"/>
<path d="M37.0648 36.2335L36.9477 24.8476L34.9507 24.8707L35.0713 36.2566C35.0782 36.8077 35.5298 37.2489 36.0784 37.2449C36.6323 37.2382 37.0709 36.7872 37.0648 36.2335Z" fill="black"/>
<path d="M30.9547 58.045L37.3126 32.3405L36.5508 32.1521L30.1928 57.8566L30.9547 58.045Z" fill="#FF4D4D"/>
<path d="M38.0942 35.9993C38.0942 37.1563 37.1561 38.0942 36.0019 38.0942C34.8466 38.0942 33.9085 37.1561 33.9085 35.9993C33.9085 34.8466 34.8466 33.9088 36.0019 33.9088C37.156 33.9083 38.0942 34.8466 38.0942 35.9993Z" fill="#FF4D4D"/>
</g>
<defs>
<clipPath id="clip0_1430_11396">
<rect width="72" height="72" fill="white"/>
</clipPath>
</defs>
</svg>
