<svg width="72" height="72" viewBox="0 0 72 72" fill="none" xmlns="http://www.w3.org/2000/svg">
<path fill-rule="evenodd" clip-rule="evenodd" d="M38.9981 49.5165V27.0108C37.001 26.9958 34.9948 26.9964 32.9981 27.0118V49.5138C34.0472 50.2502 35.0365 51.0787 35.9983 51.9999C36.9584 51.0803 37.9498 50.2521 38.9981 49.5165Z" fill="#C9DCFB"/>
<path fill-rule="evenodd" clip-rule="evenodd" d="M3.83409 31.6961C7.39911 29.8993 15.9476 29.8692 19.5595 31.727C19.8757 21.442 22.8406 7.89841 30.0497 2.23581C15.725 4.90808 4.83765 17.0011 3.83409 31.6961Z" fill="#659CF8"/>
<path fill-rule="evenodd" clip-rule="evenodd" d="M25.7703 10.7557C23.1396 16.2564 21.4427 23.7694 21.2293 32.1326C26.6797 29.7837 45.0678 29.645 50.7736 32.1253C50.56 23.8095 48.8785 16.332 46.2693 10.8375C43.5843 5.18267 39.951 1.68738 36.0011 1.68738C32.0699 1.68738 28.452 5.14889 25.7703 10.7557Z" fill="#136AFB"/>
<path fill-rule="evenodd" clip-rule="evenodd" d="M41.954 2.23595C49.1732 7.90605 52.132 21.4679 52.4444 31.7535C55.9719 29.8904 64.5117 29.8787 68.1658 31.6701C67.15 16.9823 56.2661 4.90638 41.954 2.23595Z" fill="#659CF8"/>
<path fill-rule="evenodd" clip-rule="evenodd" d="M38.4881 47.0643C37.322 48.3424 36.9024 49.7201 36.4073 49.993C35.9992 50.2179 35.486 50.0694 35.2618 49.6595C34.6891 48.6206 34.1262 47.7473 33.4909 47.0497C33.4117 46.9934 33.3424 46.9221 33.2884 46.8359C32.1283 45.6597 30.7108 45.0435 28.5717 45.0435C25.1093 45.0435 21.9869 47.533 21.9869 50.9388C21.9869 53.1652 22.8782 55.4216 24.349 57.6978H27.756L29.3334 51.8075C29.5683 50.9308 30.8643 50.9871 30.9875 51.9355L32.1424 59.512L32.6207 57.8847C32.7307 57.5123 33.0748 57.2729 33.4452 57.2797H37.3836L39.015 51.7249C39.2726 50.8486 40.5942 50.9368 40.6678 51.9306L41.424 58.838L41.9352 56.9255C42.0375 56.5433 42.3865 56.2931 42.765 56.3001H48.4803C49.4501 54.4975 50.0133 52.7087 50.0133 50.9388C50.0133 45.6934 43.1515 43.5046 39.5123 46.1457C39.2174 46.3596 38.9553 46.5873 38.7207 46.8212C38.6609 46.9218 38.5806 47.0029 38.4881 47.0643Z" fill="#FF4D4D"/>
<path fill-rule="evenodd" clip-rule="evenodd" d="M38.0127 58.967H34.0583L32.7029 63.5578C32.4268 64.6327 31.0341 64.2208 31.0444 63.5045L29.921 56.1293L29.2284 58.7135C29.1488 59.0969 28.8091 59.385 28.4022 59.385H25.5383C28.2132 62.9024 32.0792 66.4599 36 70.0191C40.441 65.9876 44.8117 61.9585 47.4607 57.9874H43.3964L41.9019 63.5654C41.6214 64.744 40.1023 64.1125 40.237 63.4848L39.4452 56.2351L38.8373 58.3024C38.7551 58.6823 38.4171 58.967 38.0127 58.967Z" fill="#FF4D4D"/>
</svg>
