<svg width="80" height="72" viewBox="0 0 80 72" fill="none" xmlns="http://www.w3.org/2000/svg">
<path d="M25.3256 72C30.3133 72 34.3566 68.2076 34.3566 63.5295C34.3566 58.8513 30.3133 55.0589 25.3256 55.0589C20.3379 55.0589 16.2946 58.8513 16.2946 63.5295C16.2946 68.2076 20.3379 72 25.3256 72Z" fill="#57565C"/>
<path d="M25.8821 66.3525C27.4415 66.3525 28.7056 65.0884 28.7056 63.529C28.7056 61.9696 27.4415 60.7054 25.8821 60.7054C24.3227 60.7054 23.0586 61.9696 23.0586 63.529C23.0586 65.0884 24.3227 66.3525 25.8821 66.3525Z" fill="#D6D6D6"/>
<path d="M24.4719 57.8819L42.8247 56.1765V64.9407H27.2954C26.5465 64.9407 25.8284 64.6432 25.2989 64.1137C24.7693 63.5842 24.4719 62.866 24.4719 62.1171V57.8819Z" fill="#7EADFB"/>
<path d="M71.0587 72C75.7369 72 79.5293 68.2076 79.5293 63.5295C79.5293 58.8513 75.7369 55.0589 71.0587 55.0589C66.3805 55.0589 62.5881 58.8513 62.5881 63.5295C62.5881 68.2076 66.3805 72 71.0587 72Z" fill="#57565C"/>
<path d="M71.0577 66.3525C72.6171 66.3525 73.8812 65.0884 73.8812 63.529C73.8812 61.9696 72.6171 60.7054 71.0577 60.7054C69.4983 60.7054 68.2342 61.9696 68.2342 63.529C68.2342 65.0884 69.4983 66.3525 71.0577 66.3525Z" fill="#D6D6D6"/>
<path d="M72.2926 62.843L65.2338 50.1372C65.1437 49.9752 65.0226 49.8325 64.8773 49.7172C64.7321 49.602 64.5656 49.5165 64.3873 49.4657C64.209 49.4148 64.0224 49.3996 63.8382 49.4208C63.6541 49.442 63.4759 49.4993 63.3138 49.5894C63.1518 49.6795 63.0091 49.8007 62.8939 49.9459C62.7787 50.0912 62.6932 50.2577 62.6423 50.436C62.5396 50.7961 62.5841 51.1822 62.7661 51.5094L69.8249 64.2153L72.2926 62.843Z" fill="#898890"/>
<path d="M62.5881 55.0583H79.5293C79.5291 54.1334 79.3461 53.2176 78.9908 52.3636C78.6354 51.5097 78.1148 50.7344 77.4588 50.0823C76.8028 49.4303 76.0244 48.9143 75.1683 48.5641C74.3122 48.214 73.3954 48.0365 72.4705 48.0419L68.2352 48.08L62.5881 55.0583Z" fill="#136AFB"/>
<path d="M55.531 59.2938L59.7663 49.3353L55.531 32.4704L59.2778 31.7038L69.6486 47.9997L61.178 59.2938V62.1173C61.178 62.8662 60.8806 63.5844 60.351 64.1139C59.8215 64.6434 59.1034 64.9409 58.3545 64.9409H42.8251L34.3546 57.8821H14.0817C13.4677 57.8821 12.8788 57.6381 12.4446 57.2039C12.0103 56.7697 11.7664 56.1808 11.7664 55.5668V47.387C11.7666 47.1433 11.8299 46.9038 11.9501 46.6917C12.0704 46.4797 12.2435 46.3024 12.4525 46.1772L18.8252 42.3527H44.2369V59.2938H55.531Z" fill="#136AFB"/>
<path d="M62.5881 23.9998H65.4117C66.5349 23.9998 67.6122 24.446 68.4065 25.2402C69.2007 26.0345 69.6469 27.1118 69.6469 28.235C69.6469 29.3583 69.2007 30.4356 68.4065 31.2298C67.6122 32.0241 66.5349 32.4703 65.4117 32.4703H62.5881" fill="#ACB3BA"/>
<path d="M63.9994 32.4703H55.5288V28.235L61.1758 23.9998H63.9994V32.4703Z" fill="#4085F9"/>
<path d="M25.8824 16.9413H0.470764V42.353H25.8824V16.9413Z" fill="#ACB3BA"/>
<path d="M49.8802 53.647H44.2332V59.294H54.1155V57.8823C54.1155 56.759 53.6693 55.6817 52.875 54.8875C52.0807 54.0932 51.0035 53.647 49.8802 53.647Z" fill="#FF4D4D"/>
<path d="M41.6959 18.9728L46.6766 24.9488C46.9286 25.2514 47.2601 25.4778 47.6337 25.6024L55.5311 28.2354V32.4706L46.5128 30.2118C45.0236 29.8395 43.6637 29.0694 42.5782 27.9841L40.0018 25.4118V38.1177H31.5312V21.1766C31.5312 20.0533 31.9774 18.976 32.7717 18.1818C33.5659 17.3875 34.6432 16.9413 35.7665 16.9413H37.3575C38.1854 16.9412 39.0031 17.1232 39.7528 17.4742C40.5025 17.8253 41.1658 18.3369 41.6959 18.9728Z" fill="#00B1FF"/>
<path d="M49.8841 40.9409V53.6468H44.237V42.3527H34.3547C33.6059 42.3527 32.8877 42.0552 32.3582 41.5257C31.8287 40.9962 31.5312 40.278 31.5312 39.5291V36.7056H45.6488C46.7721 36.7056 47.8493 37.1518 48.6436 37.9461C49.4379 38.7404 49.8841 39.8176 49.8841 40.9409Z" fill="#57565C"/>
<path d="M32.941 7.05847V12.7055C32.941 13.8288 33.3872 14.906 34.1815 15.7003C34.9757 16.4946 36.053 16.9408 37.1763 16.9408H38.588C39.7113 16.9408 40.7885 16.4946 41.5828 15.7003C42.3771 14.906 42.8233 13.8288 42.8233 12.7055V7.05847H32.941Z" fill="#F5C09A"/>
<path d="M44.234 47.9996H28.7047V50.8231H44.234V47.9996Z" fill="#7EADFB"/>
<path d="M25.8846 47.9996H18.8258V50.8231H25.8846V47.9996Z" fill="#7EADFB"/>
<path d="M16.0017 47.9996H11.7664V50.8231H16.0017V47.9996Z" fill="#FF4D4D"/>
<path d="M15.9998 16.9408H10.3527V22.5878H15.9998V16.9408Z" fill="#136AFB"/>
<path d="M57.6464 28.2352H55.5288V32.4705H58.3523C58.7268 32.4705 59.0858 32.3218 59.3506 32.057C59.6154 31.7923 59.7641 31.4332 59.7641 31.0588V30.3529C59.7641 29.7912 59.541 29.2526 59.1438 28.8555C58.7467 28.4583 58.2081 28.2352 57.6464 28.2352Z" fill="#F5C09A"/>
<path d="M45.6488 5.64704C45.6491 6.04147 45.5093 6.42319 45.2544 6.72415C44.9994 7.02511 44.6459 7.22576 44.2568 7.29033L37.1782 8.47056V9.88232C37.1782 10.6312 36.8808 11.3493 36.3512 11.8789C35.8217 12.4084 35.1036 12.7058 34.3547 12.7058H33.8182C33.2117 12.7058 32.63 12.4649 32.2011 12.036C31.7721 11.6071 31.5312 11.0254 31.5312 10.4188V5.64704C31.5312 4.14935 32.1261 2.71301 33.1852 1.65398C34.2442 0.594954 35.6805 0 37.1782 0H40.0017C41.4994 0 42.9358 0.594954 43.9948 1.65398C45.0538 2.71301 45.6488 4.14935 45.6488 5.64704Z" fill="#57565C"/>
<path d="M18.0196 36.9091C18.5328 36.3957 18.8212 35.6995 18.8212 34.9735C18.8212 34.2476 18.5328 33.5514 18.0196 33.038L15.2313 30.2794L11.8431 30.7665L11.3617 34.1519L14.1499 36.9104C14.6634 37.4231 15.3594 37.711 16.085 37.7107C16.8106 37.7105 17.5064 37.4221 18.0196 36.9091Z" fill="#FF4D4D"/>
<path d="M15.2339 30.2792L12.0024 27.0166C11.4872 26.5124 10.7939 26.2317 10.073 26.2356C9.35215 26.2395 8.66191 26.5276 8.15217 27.0374C7.64243 27.5471 7.35434 28.2373 7.35044 28.9582C7.34655 29.6791 7.62717 30.3724 8.13137 30.8876L11.3629 34.1502L15.2339 30.2792Z" fill="white"/>
<path d="M13.145 32.3686L9.91351 29.106C9.55908 28.7516 9.30883 28.3066 9.19007 27.8196C9.07132 27.3326 9.08862 26.8224 9.24009 26.3446C8.7919 26.4864 8.3878 26.7412 8.06676 27.0846C7.74571 27.428 7.51856 27.8483 7.40719 28.305C7.29582 28.7617 7.30397 29.2394 7.43091 29.692C7.55784 30.1446 7.79927 30.5569 8.13188 30.8891L11.3634 34.1516L13.1464 32.3686H13.145Z" fill="white"/>
</svg>
