<svg width="54" height="72" viewBox="0 0 54 72" fill="none" xmlns="http://www.w3.org/2000/svg">
<path d="M53.3996 7.19937C53.3996 4.54845 51.2506 2.39941 48.5997 2.39941H37.8001H16.2001H5.40007C2.74915 2.39941 0.600113 4.54845 0.600113 7.19937V67.1998C0.600113 69.8508 2.74915 71.9998 5.40007 71.9998H48.5999C51.2509 71.9998 53.3999 69.8508 53.3999 67.1998L53.3996 7.19937Z" fill="#5090F9"/>
<path d="M48.5987 9.60006C48.5987 8.27453 47.5241 7.20001 46.1986 7.20001H37.7989H16.1992H7.79899C6.47346 7.20001 5.39894 8.27453 5.39894 9.60006V64.8003C5.39894 66.1258 6.47346 67.2003 7.79899 67.2003H46.1986C47.5241 67.2003 48.5987 66.1258 48.5987 64.8003V9.60006Z" fill="#F5F8FF"/>
<path d="M35.3687 0H17.3239C16.7027 0 16.1989 0.503719 16.1989 1.125V7.35033C16.1989 8.59303 17.2062 9.60033 18.4489 9.60033H35.3687V0Z" fill="#617881"/>
<path d="M36.6386 0H33.3068C33.9469 0 34.4657 0.518906 34.4657 1.15889V7.28241C34.4657 8.56252 33.4279 9.60033 32.1478 9.60033H35.4796C36.7597 9.60033 37.7975 8.56252 37.7975 7.28241V1.15889C37.7977 0.518906 37.2787 0 36.6386 0Z" fill="#617881"/>
<path d="M27.785 6.11368C27.185 6.11368 26.6985 6.6001 26.6985 7.20015V9.60005H28.8716V7.20029C28.8716 6.60024 28.3851 6.11368 27.785 6.11368Z" fill="#475D66"/>
<path d="M30.6739 48H20.9239C20.3027 48 19.7989 47.4963 19.7989 46.875V44.325C19.7989 43.7037 20.3027 43.2 20.9239 43.2H30.6739C31.2952 43.2 31.7989 43.7037 31.7989 44.325V46.875C31.7989 47.4963 31.2952 48 30.6739 48Z" fill="#2F3144"/>
<path d="M42.6751 48H37.7251C37.1038 48 36.6001 47.4963 36.6001 46.875V44.325C36.6001 43.7037 37.1038 43.2 37.7251 43.2H42.6751C43.2964 43.2 43.8001 43.7037 43.8001 44.325V46.875C43.8001 47.4963 43.2964 48 42.6751 48Z" fill="#2F3144"/>
<path d="M13.8387 49.0866H11.3566C10.1184 49.0866 9.11105 48.0793 9.11105 46.8411V44.3591C9.11105 43.1209 10.1184 42.1136 11.3566 42.1136H13.8387C15.0769 42.1136 16.0842 43.1209 16.0842 44.3591V46.8411C16.0842 48.0793 15.0769 49.0866 13.8387 49.0866ZM11.3566 44.2867C11.3166 44.2867 11.2841 44.3191 11.2841 44.3591V46.8411C11.2841 46.8811 11.3166 46.9135 11.3566 46.9135H13.8387C13.8787 46.9135 13.9112 46.8811 13.9112 46.8411V44.3591C13.9112 44.3191 13.8787 44.2867 13.8387 44.2867H11.3566Z" fill="#34C300"/>
<path d="M32.9263 52.8003H42.6762C43.2975 52.8003 43.8012 53.304 43.8012 53.9253V56.4752C43.8012 57.0965 43.2975 57.6002 42.6762 57.6002H32.9263C32.305 57.6002 31.8013 57.0965 31.8013 56.4752V53.9253C31.8013 53.304 32.305 52.8003 32.9263 52.8003Z" fill="#2F3144"/>
<path d="M20.9239 52.8003H25.8739C26.4952 52.8003 26.9989 53.304 26.9989 53.9253V56.4752C26.9989 57.0965 26.4952 57.6002 25.8739 57.6002H20.9239C20.3027 57.6002 19.7989 57.0965 19.7989 56.4752V53.9253C19.7989 53.304 20.3025 52.8003 20.9239 52.8003Z" fill="#2F3144"/>
<path d="M13.8387 58.6867H11.3566C10.1184 58.6867 9.11105 57.6794 9.11105 56.4412V53.9592C9.11105 52.721 10.1184 51.7137 11.3566 51.7137H13.8387C15.0769 51.7137 16.0842 52.721 16.0842 53.9592V56.4412C16.0842 57.6794 15.0769 58.6867 13.8387 58.6867ZM11.3566 53.8868C11.3166 53.8868 11.2841 53.9192 11.2841 53.9592V56.4412C11.2841 56.4812 11.3166 56.5136 11.3566 56.5136H13.8387C13.8787 56.5136 13.9112 56.4812 13.9112 56.4412V53.9592C13.9112 53.9192 13.8787 53.8868 13.8387 53.8868H11.3566Z" fill="#34C300"/>
<path d="M38.6809 16.3083C35.7622 13.4082 31.2994 13.0066 27.9507 15.0995C27.5398 15.3562 27.0232 15.3562 26.6124 15.0995C23.2636 13.0066 18.8011 13.4082 15.8822 16.3083C12.4778 19.6907 12.5683 25.3333 15.9618 28.7266L25.5247 38.2895C26.495 39.2598 28.0682 39.2598 29.0385 38.2895L38.6012 28.7266C41.9947 25.3331 42.0853 19.6907 38.6809 16.3083Z" fill="#FF4D4D"/>
<path d="M28.8592 30.9815C28.8254 30.9815 28.7917 30.9803 28.7579 30.9779C28.345 30.9487 27.9652 30.7415 27.7168 30.4103L23.9732 25.4188L21.9831 27.4088C21.7153 27.6766 21.3521 27.827 20.9734 27.827H8.35617C7.56754 27.827 6.92824 27.1877 6.92824 26.3991C6.92824 25.6105 7.56754 24.9712 8.35617 24.9712H20.3818L23.1179 22.2352C23.4106 21.9423 23.8158 21.7911 24.2288 21.8205C24.6417 21.8499 25.0215 22.0569 25.2699 22.3881L29.0135 27.3796L31.0035 25.3894C31.2713 25.1216 31.6345 24.9712 32.0132 24.9712H46.2075C46.9961 24.9712 47.6354 25.6105 47.6354 26.3991C47.6354 27.1877 46.9961 27.827 46.2075 27.827H32.6046L29.8687 30.5631C29.6001 30.832 29.2364 30.9815 28.8592 30.9815Z" fill="#2F3144"/>
</svg>
