<svg width="72" height="72" viewBox="0 0 72 72" fill="none" xmlns="http://www.w3.org/2000/svg">
<path d="M67.0716 27.2944L63.718 26.6045L3.50808 44.8198L2.83401 48.1013C2.75838 48.4685 2.75584 48.847 2.82654 49.2151C2.89724 49.5832 3.0398 49.9339 3.24607 50.2469C3.45234 50.5599 3.71827 50.8292 4.02867 51.0394C4.33907 51.2496 4.68784 51.3966 5.05507 51.4719L59.7895 62.7231C60.1567 62.7987 60.5353 62.8012 60.9035 62.7305C61.2717 62.6599 61.6224 62.5173 61.9355 62.3111C62.2487 62.1048 62.5181 61.8389 62.7285 61.5285C62.9388 61.2182 63.086 60.8694 63.1615 60.5021L69.2939 30.6665C69.3695 30.2991 69.372 29.9205 69.3013 29.5522C69.2305 29.1839 69.0879 28.8331 68.8815 28.5199C68.6751 28.2068 68.409 27.9374 68.0985 27.7271C67.7879 27.5168 67.439 27.3697 67.0716 27.2944Z" fill="#7EF4FB"/>
<path d="M57.0678 54.7558C57.0353 54.7531 57.003 54.7486 56.971 54.7422L17.0292 46.7742C16.92 46.7531 16.8161 46.7106 16.7234 46.6491C16.6307 46.5877 16.551 46.5085 16.4891 46.4162C16.4271 46.3239 16.3839 46.2202 16.3621 46.1112C16.3404 46.0021 16.3403 45.8898 16.3621 45.7808C16.3839 45.6717 16.427 45.568 16.4889 45.4757C16.5509 45.3834 16.6305 45.3042 16.7232 45.2427C16.8158 45.1813 16.9198 45.1387 17.0289 45.1175C17.1381 45.0964 17.2504 45.097 17.3593 45.1194L57.3012 53.0875C57.5124 53.1295 57.6996 53.2507 57.8244 53.4263C57.9492 53.6019 58.002 53.8185 57.9722 54.0319C57.9424 54.2452 57.8321 54.439 57.6639 54.5736C57.4958 54.7083 57.2825 54.7735 57.0678 54.7559L57.0678 54.7558Z" fill="#19D5CF"/>
<path d="M61.0256 11.295H5.0625C4.69313 11.2949 4.32735 11.3676 3.98607 11.5089C3.64479 11.6502 3.3347 11.8573 3.07351 12.1185C2.81233 12.3797 2.60517 12.6898 2.46386 13.0311C2.32256 13.3724 2.24989 13.7381 2.25 14.1075V44.6527C2.25 45.3986 2.54632 46.114 3.07376 46.6414C3.60121 47.1689 4.31658 47.4652 5.0625 47.4652H61.0256C61.7715 47.4652 62.4869 47.1689 63.0144 46.6414C63.5418 46.114 63.8381 45.3986 63.8381 44.6527V14.1075C63.8382 13.7381 63.7656 13.3724 63.6243 13.0311C63.483 12.6898 63.2758 12.3797 63.0146 12.1185C62.7534 11.8573 62.4433 11.6502 62.1021 11.5089C61.7608 11.3676 61.395 11.2949 61.0256 11.295Z" fill="#7EADFB"/>
<path fill-rule="evenodd" clip-rule="evenodd" d="M12.0904 24.7143C12.0904 23.464 12.6076 22.2649 13.5284 21.3808C14.4491 20.4967 15.6979 20 17 20C18.3021 20 19.5509 20.4967 20.4716 21.3808C21.3924 22.2649 21.9096 23.464 21.9096 24.7143C21.9096 25.9646 21.3924 27.1637 20.4716 28.0478C19.5509 28.9319 18.3021 29.4286 17 29.4286C15.6979 29.4286 14.4491 28.9319 13.5284 28.0478C12.6076 27.1637 12.0904 25.9646 12.0904 24.7143ZM8.00013 39.4909C8.03692 37.2223 9.0013 35.0585 10.6851 33.4667C12.3689 31.8749 14.6371 30.9827 17 30.9827C19.3629 30.9827 21.6311 31.8749 23.3149 33.4667C24.9987 35.0585 25.9631 37.2223 25.9999 39.4909C26.0027 39.6437 25.9591 39.7939 25.8744 39.9232C25.7898 40.0525 25.6677 40.1553 25.5231 40.219C22.8492 41.3962 19.9416 42.0038 17 42C13.9604 42 11.0725 41.363 8.47691 40.219C8.33233 40.1553 8.21023 40.0525 8.12556 39.9232C8.04088 39.7939 7.99729 39.6437 8.00013 39.4909Z" fill="#EEF3FB"/>
<mask id="path-5-outside-1_1430_11531" maskUnits="userSpaceOnUse" x="45" y="17" width="13" height="13" fill="black">
<rect fill="white" x="45" y="17" width="13" height="13"/>
<path d="M57 22.319V24.6797C57.0001 24.7088 56.9944 24.7377 56.9833 24.7647C56.9721 24.7916 56.9558 24.8161 56.9352 24.8367C56.9146 24.8574 56.8901 24.8737 56.8631 24.8848C56.8362 24.8959 56.8073 24.9016 56.7781 24.9016H53.1226C53.0641 24.9016 53.0081 24.9249 52.9667 24.9662C52.9254 25.0076 52.9021 25.0637 52.9021 25.1221V28.7781C52.9021 28.8073 52.8964 28.8361 52.8853 28.8631C52.8742 28.8901 52.8579 28.9145 52.8372 28.9352C52.8166 28.9558 52.7921 28.9721 52.7652 28.9833C52.7382 28.9944 52.7094 29.0001 52.6802 29H50.3198C50.2906 29.0001 50.2618 28.9944 50.2348 28.9833C50.2079 28.9721 50.1834 28.9558 50.1628 28.9352C50.1421 28.9145 50.1258 28.8901 50.1147 28.8631C50.1036 28.8361 50.0979 28.8073 50.0979 28.7781V25.1221C50.0979 25.0637 50.0746 25.0076 50.0333 24.9662C49.9919 24.9249 49.9359 24.9016 49.8774 24.9016H46.2219C46.1927 24.9016 46.1638 24.8959 46.1369 24.8848C46.1099 24.8737 46.0854 24.8574 46.0648 24.8367C46.0442 24.8161 46.0279 24.7916 46.0167 24.7647C46.0056 24.7377 45.9999 24.7088 46 24.6797V22.319C46.0001 22.2899 46.0059 22.2612 46.0171 22.2344C46.0282 22.2075 46.0446 22.1832 46.0652 22.1627C46.0858 22.1422 46.1103 22.126 46.1371 22.115C46.164 22.104 46.1928 22.0983 46.2219 22.0984H49.8774C49.936 22.0981 49.9921 22.0745 50.0334 22.033C50.0747 21.9914 50.0979 21.9352 50.0979 21.8765V18.2206C50.098 18.1915 50.1038 18.1627 50.115 18.1359C50.1262 18.1091 50.1425 18.0848 50.1632 18.0643C50.1838 18.0438 50.2082 18.0276 50.2351 18.0165C50.262 18.0055 50.2908 17.9999 50.3198 18H52.6802C52.7092 17.9999 52.738 18.0055 52.7649 18.0165C52.7918 18.0276 52.8162 18.0438 52.8368 18.0643C52.8574 18.0848 52.8738 18.1091 52.885 18.1359C52.8962 18.1627 52.902 18.1915 52.9021 18.2206V21.8765C52.9021 21.9352 52.9253 21.9914 52.9666 22.033C53.0079 22.0745 53.064 22.0981 53.1226 22.0984H56.7781C56.8072 22.0983 56.836 22.104 56.8629 22.115C56.8897 22.126 56.9142 22.1422 56.9348 22.1627C56.9554 22.1832 56.9718 22.2075 56.9829 22.2344C56.9941 22.2612 56.9999 22.2899 57 22.319Z"/>
</mask>
<path d="M57 22.319V24.6797C57.0001 24.7088 56.9944 24.7377 56.9833 24.7647C56.9721 24.7916 56.9558 24.8161 56.9352 24.8367C56.9146 24.8574 56.8901 24.8737 56.8631 24.8848C56.8362 24.8959 56.8073 24.9016 56.7781 24.9016H53.1226C53.0641 24.9016 53.0081 24.9249 52.9667 24.9662C52.9254 25.0076 52.9021 25.0637 52.9021 25.1221V28.7781C52.9021 28.8073 52.8964 28.8361 52.8853 28.8631C52.8742 28.8901 52.8579 28.9145 52.8372 28.9352C52.8166 28.9558 52.7921 28.9721 52.7652 28.9833C52.7382 28.9944 52.7094 29.0001 52.6802 29H50.3198C50.2906 29.0001 50.2618 28.9944 50.2348 28.9833C50.2079 28.9721 50.1834 28.9558 50.1628 28.9352C50.1421 28.9145 50.1258 28.8901 50.1147 28.8631C50.1036 28.8361 50.0979 28.8073 50.0979 28.7781V25.1221C50.0979 25.0637 50.0746 25.0076 50.0333 24.9662C49.9919 24.9249 49.9359 24.9016 49.8774 24.9016H46.2219C46.1927 24.9016 46.1638 24.8959 46.1369 24.8848C46.1099 24.8737 46.0854 24.8574 46.0648 24.8367C46.0442 24.8161 46.0279 24.7916 46.0167 24.7647C46.0056 24.7377 45.9999 24.7088 46 24.6797V22.319C46.0001 22.2899 46.0059 22.2612 46.0171 22.2344C46.0282 22.2075 46.0446 22.1832 46.0652 22.1627C46.0858 22.1422 46.1103 22.126 46.1371 22.115C46.164 22.104 46.1928 22.0983 46.2219 22.0984H49.8774C49.936 22.0981 49.9921 22.0745 50.0334 22.033C50.0747 21.9914 50.0979 21.9352 50.0979 21.8765V18.2206C50.098 18.1915 50.1038 18.1627 50.115 18.1359C50.1262 18.1091 50.1425 18.0848 50.1632 18.0643C50.1838 18.0438 50.2082 18.0276 50.2351 18.0165C50.262 18.0055 50.2908 17.9999 50.3198 18H52.6802C52.7092 17.9999 52.738 18.0055 52.7649 18.0165C52.7918 18.0276 52.8162 18.0438 52.8368 18.0643C52.8574 18.0848 52.8738 18.1091 52.885 18.1359C52.8962 18.1627 52.902 18.1915 52.9021 18.2206V21.8765C52.9021 21.9352 52.9253 21.9914 52.9666 22.033C53.0079 22.0745 53.064 22.0981 53.1226 22.0984H56.7781C56.8072 22.0983 56.836 22.104 56.8629 22.115C56.8897 22.126 56.9142 22.1422 56.9348 22.1627C56.9554 22.1832 56.9718 22.2075 56.9829 22.2344C56.9941 22.2612 56.9999 22.2899 57 22.319Z" fill="#FF4D4D"/>
<path d="M57 22.319H58L58 22.3166L57 22.319ZM57 24.6797H56L56 24.6821L57 24.6797ZM56.7781 24.9016L56.7805 23.9016H56.7781V24.9016ZM53.1226 24.9016V23.9016L53.1214 23.9016L53.1226 24.9016ZM52.9021 25.1221L51.9021 25.1209V25.1221H52.9021ZM52.9021 28.7781H51.9021L51.9021 28.7805L52.9021 28.7781ZM52.6802 29L52.6826 28H52.6802V29ZM50.3198 29V28L50.3174 28L50.3198 29ZM50.0979 28.7781L51.0979 28.7805V28.7781H50.0979ZM50.0979 25.1221H51.0979L51.0979 25.1209L50.0979 25.1221ZM49.8774 24.9016L49.8786 23.9016H49.8774V24.9016ZM46.2219 24.9016V23.9016L46.2195 23.9016L46.2219 24.9016ZM46 24.6797L47 24.6821V24.6797H46ZM46 22.319L45 22.3166V22.319H46ZM46.2219 22.0984L46.2182 23.0984H46.2219V22.0984ZM49.8774 22.0984V23.0985L49.8834 23.0984L49.8774 22.0984ZM50.0979 21.8765H49.0979V21.8766L50.0979 21.8765ZM50.0979 18.2206L49.0979 18.2182V18.2206H50.0979ZM50.3198 18L50.3162 19H50.3198V18ZM52.6802 18V19L52.6838 19L52.6802 18ZM52.9021 18.2206H53.9021L53.9021 18.2182L52.9021 18.2206ZM52.9021 21.8765L53.9021 21.8766V21.8765H52.9021ZM53.1226 22.0984L53.1166 23.0984H53.1226V22.0984ZM56.7781 22.0984V23.0984L56.7818 23.0984L56.7781 22.0984ZM56 22.319V24.6797H58V22.319H56ZM56 24.6821C55.9998 24.5795 56.0198 24.4779 56.0589 24.3831L57.9076 25.1462C57.969 24.9975 58.0004 24.8381 58 24.6773L56 24.6821ZM56.0589 24.3831C56.098 24.2883 56.1555 24.2022 56.228 24.1297L57.6423 25.5438C57.7561 25.43 57.8462 25.2949 57.9076 25.1462L56.0589 24.3831ZM56.228 24.1297C56.3005 24.0571 56.3867 23.9996 56.4815 23.9605L57.2447 25.8091C57.3935 25.7477 57.5286 25.6576 57.6423 25.5438L56.228 24.1297ZM56.4815 23.9605C56.5763 23.9214 56.6779 23.9013 56.7805 23.9016L56.7757 25.9016C56.9366 25.902 57.096 25.8705 57.2447 25.8091L56.4815 23.9605ZM56.7781 23.9016H53.1226V25.9016H56.7781V23.9016ZM53.1214 23.9016C52.7981 23.902 52.4882 24.0306 52.2596 24.2592L53.6739 25.6733C53.528 25.8192 53.3302 25.9013 53.1238 25.9016L53.1214 23.9016ZM52.2596 24.2592C52.031 24.4878 51.9025 24.7977 51.9021 25.1209L53.9021 25.1233C53.9018 25.3296 53.8198 25.5274 53.6739 25.6733L52.2596 24.2592ZM51.9021 25.1221V28.7781H53.9021V25.1221H51.9021ZM51.9021 28.7805C51.9018 28.678 51.9218 28.5764 51.961 28.4816L53.8097 29.2446C53.8711 29.0959 53.9025 28.9366 53.9021 28.7757L51.9021 28.7805ZM51.961 28.4816C52.0001 28.3868 52.0576 28.3006 52.1301 28.2281L53.5444 29.6422C53.6581 29.5285 53.7483 29.3933 53.8097 29.2446L51.961 28.4816ZM52.1301 28.2281C52.2026 28.1556 52.2888 28.0981 52.3836 28.0589L53.1468 29.9076C53.2955 29.8462 53.4306 29.756 53.5444 29.6422L52.1301 28.2281ZM52.3836 28.0589C52.4784 28.0198 52.5801 27.9998 52.6826 28L52.6778 30C52.8386 30.0004 52.998 29.969 53.1468 29.9076L52.3836 28.0589ZM52.6802 28H50.3198V30H52.6802V28ZM50.3174 28C50.4199 27.9998 50.5216 28.0198 50.6164 28.0589L49.8532 29.9076C50.002 29.969 50.1614 30.0004 50.3222 30L50.3174 28ZM50.6164 28.0589C50.7112 28.0981 50.7974 28.1556 50.8699 28.2281L49.4556 29.6422C49.5694 29.756 49.7045 29.8462 49.8532 29.9076L50.6164 28.0589ZM50.8699 28.2281C50.9424 28.3006 50.9999 28.3868 51.039 28.4816L49.1903 29.2446C49.2517 29.3933 49.3419 29.5285 49.4556 29.6422L50.8699 28.2281ZM51.039 28.4816C51.0782 28.5764 51.0982 28.678 51.0979 28.7805L49.0979 28.7757C49.0975 28.9365 49.1289 29.0959 49.1903 29.2446L51.039 28.4816ZM51.0979 28.7781V25.1221H49.0979V28.7781H51.0979ZM51.0979 25.1209C51.0975 24.7977 50.969 24.4878 50.7404 24.2592L49.3261 25.6733C49.1802 25.5274 49.0982 25.3296 49.0979 25.1233L51.0979 25.1209ZM50.7404 24.2592C50.5118 24.0306 50.2019 23.902 49.8786 23.9016L49.8762 25.9016C49.6698 25.9013 49.472 25.8192 49.3261 25.6733L50.7404 24.2592ZM49.8774 23.9016H46.2219V25.9016H49.8774V23.9016ZM46.2195 23.9016C46.3221 23.9013 46.4237 23.9214 46.5185 23.9605L45.7553 25.8091C45.904 25.8705 46.0634 25.902 46.2243 25.9016L46.2195 23.9016ZM46.5185 23.9605C46.6133 23.9996 46.6995 24.0571 46.772 24.1297L45.3577 25.5438C45.4714 25.6576 45.6065 25.7477 45.7553 25.8091L46.5185 23.9605ZM46.772 24.1297C46.8445 24.2022 46.902 24.2883 46.9411 24.3831L45.0924 25.1462C45.1538 25.2949 45.2439 25.43 45.3577 25.5438L46.772 24.1297ZM46.9411 24.3831C46.9802 24.478 47.0002 24.5795 47 24.6821L45 24.6773C44.9996 24.8381 45.031 24.9975 45.0924 25.1462L46.9411 24.3831ZM47 24.6797V22.319H45V24.6797H47ZM47 22.3214C46.9998 22.4237 46.9793 22.525 46.9399 22.6195L45.0942 21.8492C45.0324 21.9973 45.0004 22.1561 45 22.3166L47 22.3214ZM46.9399 22.6195C46.9005 22.714 46.8428 22.7997 46.7702 22.8719L45.3602 21.4535C45.2464 21.5667 45.156 21.7011 45.0942 21.8492L46.9399 22.6195ZM46.7702 22.8719C46.6976 22.9441 46.6115 23.0013 46.5168 23.0401L45.7575 21.1899C45.609 21.2508 45.474 21.3404 45.3602 21.4535L46.7702 22.8719ZM46.5168 23.0401C46.4221 23.079 46.3206 23.0988 46.2182 23.0984L46.2255 21.0984C46.065 21.0979 45.906 21.1289 45.7575 21.1899L46.5168 23.0401ZM46.2219 23.0984H49.8774V21.0984H46.2219V23.0984ZM49.8834 23.0984C50.2063 23.0965 50.5152 22.9668 50.7427 22.7379L49.3241 21.328C49.469 21.1822 49.6658 21.0997 49.8714 21.0985L49.8834 23.0984ZM50.7427 22.7379C50.9703 22.5089 51.0979 22.1993 51.0979 21.8765L49.0979 21.8766C49.0979 21.671 49.1792 21.4738 49.3241 21.328L50.7427 22.7379ZM51.0979 21.8765V18.2206H49.0979V21.8765H51.0979ZM51.0979 18.223C51.0977 18.3253 51.0773 18.4266 51.0378 18.5211L49.1921 17.7508C49.1303 17.8989 49.0983 18.0577 49.0979 18.2182L51.0979 18.223ZM51.0378 18.5211C50.9984 18.6155 50.9408 18.7013 50.8682 18.7735L49.4581 17.3551C49.3443 17.4682 49.2539 17.6027 49.1921 17.7508L51.0378 18.5211ZM50.8682 18.7735C50.7956 18.8457 50.7094 18.9028 50.6147 18.9417L49.8554 17.0914C49.707 17.1523 49.572 17.2419 49.4581 17.3551L50.8682 18.7735ZM50.6147 18.9417C50.52 18.9806 50.4186 19.0004 50.3162 19L50.3234 17C50.1629 16.9994 50.0039 17.0305 49.8554 17.0914L50.6147 18.9417ZM50.3198 19H52.6802V17H50.3198V19ZM52.6838 19C52.5814 19.0004 52.48 18.9806 52.3853 18.9417L53.1446 17.0914C52.9961 17.0305 52.8371 16.9994 52.6766 17L52.6838 19ZM52.3853 18.9417C52.2905 18.9028 52.2044 18.8457 52.1318 18.7735L53.5419 17.3551C53.428 17.2419 53.293 17.1523 53.1446 17.0914L52.3853 18.9417ZM52.1318 18.7735C52.0592 18.7013 52.0016 18.6155 51.9622 18.5211L53.8079 17.7508C53.7461 17.6027 53.6557 17.4682 53.5419 17.3551L52.1318 18.7735ZM51.9622 18.5211C51.9227 18.4266 51.9023 18.3253 51.9021 18.223L53.9021 18.2182C53.9017 18.0577 53.8697 17.8989 53.8079 17.7508L51.9622 18.5211ZM51.9021 18.2206V21.8765H53.9021V18.2206H51.9021ZM51.9021 21.8765C51.9021 22.1993 52.0297 22.5089 52.2573 22.7379L53.6759 21.328C53.8208 21.4738 53.9021 21.671 53.9021 21.8766L51.9021 21.8765ZM52.2573 22.7379C52.4848 22.9668 52.7937 23.0965 53.1166 23.0984L53.1286 21.0985C53.3342 21.0997 53.531 21.1823 53.6759 21.328L52.2573 22.7379ZM53.1226 23.0984H56.7781V21.0984H53.1226V23.0984ZM56.7818 23.0984C56.6794 23.0988 56.5779 23.079 56.4832 23.0401L57.2425 21.1899C57.094 21.1289 56.935 21.0979 56.7745 21.0984L56.7818 23.0984ZM56.4832 23.0401C56.3885 23.0012 56.3024 22.9441 56.2298 22.8719L57.6398 21.4535C57.526 21.3404 57.391 21.2508 57.2425 21.1899L56.4832 23.0401ZM56.2298 22.8719C56.1572 22.7998 56.0995 22.714 56.0601 22.6195L57.9058 21.8492C57.844 21.7011 57.7536 21.5666 57.6398 21.4535L56.2298 22.8719ZM56.0601 22.6195C56.0207 22.5251 56.0002 22.4238 56 22.3214L58 22.3166C57.9996 22.1561 57.9676 21.9973 57.9058 21.8492L56.0601 22.6195Z" fill="#FF4D4D" mask="url(#path-5-outside-1_1430_11531)"/>
<path d="M6.46874 44.6527V14.1075C6.46683 13.3568 6.76111 12.6357 7.28768 12.1007C7.81426 11.5657 8.53063 11.26 9.28124 11.25H5.06249C4.31188 11.26 3.59551 11.5657 3.06893 12.1007C2.54236 12.6357 2.24808 13.3568 2.24999 14.1075V44.6527C2.24999 46.2052 3.50859 47.5312 5.06249 47.5312H9.28124C7.72734 47.5312 6.46874 46.2052 6.46874 44.6527Z" fill="#7EADFB"/>
<path d="M56.3796 43H37.6204C37.4559 43 37.2981 42.8946 37.1817 42.7071C37.0654 42.5196 37 42.2652 37 42C37 41.7348 37.0654 41.4804 37.1817 41.2929C37.2981 41.1054 37.4559 41 37.6204 41H56.3796C56.5441 41 56.7019 41.1054 56.8183 41.2929C56.9346 41.4804 57 41.7348 57 42C57 42.2652 56.9346 42.5196 56.8183 42.7071C56.7019 42.8946 56.5441 43 56.3796 43Z" fill="#136AFB"/>
<path d="M56.3796 39H37.6204C37.4559 39 37.2981 38.8946 37.1817 38.7071C37.0654 38.5196 37 38.2652 37 38C37 37.7348 37.0654 37.4804 37.1817 37.2929C37.2981 37.1054 37.4559 37 37.6204 37H56.3796C56.5441 37 56.7019 37.1054 56.8183 37.2929C56.9346 37.4804 57 37.7348 57 38C57 38.2652 56.9346 38.5196 56.8183 38.7071C56.7019 38.8946 56.5441 39 56.3796 39Z" fill="#136AFB"/>
<path d="M56.3796 35H37.6204C37.4559 35 37.2981 34.8946 37.1817 34.7071C37.0654 34.5196 37 34.2652 37 34C37 33.7348 37.0654 33.4804 37.1817 33.2929C37.2981 33.1054 37.4559 33 37.6204 33H56.3796C56.5441 33 56.7019 33.1054 56.8183 33.2929C56.9346 33.4804 57 33.7348 57 34C57 34.2652 56.9346 34.5196 56.8183 34.7071C56.7019 34.8946 56.5441 35 56.3796 35Z" fill="#136AFB"/>
</svg>
