<svg width="78" height="72" viewBox="0 0 78 72" fill="none" xmlns="http://www.w3.org/2000/svg">
<path d="M0.69986 22.9786H17.551V50.5531H0.69986V22.9786Z" fill="#136AFB"/>
<path d="M17.5538 22.9786H26.7453V50.5531H17.5538V22.9786Z" fill="#CCCCCC"/>
<path d="M45.1234 2.26892H63.5064V18.3832H45.1234V2.26892Z" fill="#E2E7F6"/>
<path d="M45.1234 18.3831V16.8511L47.8073 15.0619C49.0546 14.2295 50.5205 13.7852 52.0201 13.7852C53.5196 13.7852 54.9855 14.2295 56.2328 15.0619L56.9988 15.5766C58.2456 16.4073 59.7103 16.8507 61.2085 16.8511H63.5064V18.3831H45.1234Z" fill="#FF4155"/>
<path d="M56.6128 47.4893C55.597 47.4893 54.6229 47.0858 53.9047 46.3676C53.1864 45.6494 52.783 44.6753 52.783 43.6595C52.783 42.6438 53.1864 41.6697 53.9047 40.9515C54.6229 40.2332 55.597 39.8297 56.6128 39.8297C55.597 39.8297 54.6229 39.4262 53.9047 38.708C53.1864 37.9898 52.783 37.0157 52.783 35.9999C52.783 34.9842 53.1864 34.0101 53.9047 33.2919C54.6229 32.5736 55.597 32.1701 56.6128 32.1701C55.9015 32.1701 55.2043 31.9721 54.5993 31.5982C53.9943 31.2243 53.5054 30.6892 53.1873 30.0531C52.8692 29.4169 52.7346 28.7048 52.7984 27.9964C52.8623 27.2881 53.1222 26.6115 53.5489 26.0425H49.7191C49.7202 27.6569 49.2959 29.2432 48.4892 30.6416C47.6824 32.04 46.5215 33.2012 45.1234 34.0085V62.8085C45.1234 64.0155 45.3611 65.2108 45.823 66.3259C46.2849 67.4411 46.962 68.4544 47.8155 69.3079C48.669 70.1614 49.6823 70.8384 50.7974 71.3003C51.9126 71.7623 53.1078 72 54.3149 72C55.5219 72 56.7171 71.7623 57.8323 71.3003C58.9475 70.8384 59.9607 70.1614 60.8143 69.3079C61.6678 68.4544 62.3448 67.4411 62.8067 66.3259C63.2686 65.2108 63.5064 64.0155 63.5064 62.8085V55.1489H56.6128C55.597 55.1489 54.6229 54.7454 53.9047 54.0272C53.1864 53.309 52.783 52.3348 52.783 51.3191C52.783 50.3034 53.1864 49.3293 53.9047 48.611C54.6229 47.8928 55.597 47.4893 56.6128 47.4893Z" fill="#FC3755"/>
<path d="M71.165 52.0853V51.3193C71.165 49.2042 69.4503 47.4895 67.3352 47.4895H56.6117C54.4966 47.4895 52.7819 49.2042 52.7819 51.3193V52.0853C52.7819 54.2004 54.4966 55.915 56.6117 55.915H67.3352C69.4503 55.915 71.165 54.2004 71.165 52.0853Z" fill="#EEA981"/>
<path d="M67.3352 55.1491C69.4503 55.1491 71.165 53.4344 71.165 51.3193C71.165 49.2042 69.4503 47.4895 67.3352 47.4895H56.6117C54.4966 47.4895 52.7819 49.2042 52.7819 51.3193C52.7819 53.4344 54.4966 55.1491 56.6117 55.1491H67.3352Z" fill="#FFBF9B"/>
<path d="M74.2271 44.4256V43.6596C74.2271 41.5445 72.5124 39.8298 70.3973 39.8298H56.61C54.4949 39.8298 52.7802 41.5445 52.7802 43.6596V44.4256C52.7802 46.5407 54.4949 48.2554 56.61 48.2554H70.3973C72.5124 48.2554 74.2271 46.5407 74.2271 44.4256Z" fill="#EEA981"/>
<path d="M70.3973 47.4894C72.5124 47.4894 74.2271 45.7748 74.2271 43.6596C74.2271 41.5445 72.5124 39.8298 70.3973 39.8298H56.61C54.4949 39.8298 52.7802 41.5445 52.7802 43.6596C52.7802 45.7748 54.4949 47.4894 56.61 47.4894H70.3973Z" fill="#FFBF9B"/>
<path d="M66.5693 32.1706H73.463C74.5123 32.2687 75.4873 32.755 76.197 33.5342C76.9068 34.3134 77.3001 35.3294 77.3001 36.3834C77.3001 37.4373 76.9068 38.4534 76.197 39.2325C75.4873 40.0117 74.5123 40.498 73.463 40.5961H56.6119C55.5625 40.498 54.5875 40.0117 53.8778 39.2325C53.1681 38.4534 52.7747 37.4373 52.7747 36.3834C52.7747 35.3294 53.1681 34.3134 53.8778 33.5342C54.5875 32.755 55.5625 32.2687 56.6119 32.1706H58.9097" fill="#EEA981"/>
<path d="M66.5725 32.1706H73.4661C74.4819 32.1706 75.456 32.5741 76.1742 33.2923C76.8924 34.0105 77.2959 34.9847 77.2959 36.0004C77.2959 37.0161 76.8924 37.9902 76.1742 38.7085C75.456 39.4267 74.4819 39.8302 73.4661 39.8302H56.615C55.5993 39.8302 54.6252 39.4267 53.907 38.7085C53.1887 37.9902 52.7852 37.0161 52.7852 36.0004C52.7852 34.9847 53.1887 34.0105 53.907 33.2923C54.6252 32.5741 55.5993 32.1706 56.615 32.1706H58.9129" fill="#FFBF9B"/>
<path d="M58.9081 32.9129H56.6102C55.535 32.8481 54.529 32.3608 53.8115 31.5573C53.0941 30.7538 52.7235 29.6992 52.7804 28.6235C52.7743 27.7067 53.0409 26.8087 53.5464 26.0438H58.9081V32.9129Z" fill="#EEA981"/>
<path d="M66.5665 24.5114H70.3963C71.4426 24.6094 72.4146 25.0943 73.1221 25.8712C73.8297 26.6481 74.2218 27.6611 74.2218 28.7119C74.2218 29.7627 73.8297 30.7757 73.1221 31.5526C72.4146 32.3296 71.4426 32.8145 70.3963 32.9124H66.5665" fill="#EEA981"/>
<path d="M58.9086 32.1714H56.6108C55.8995 32.1714 55.2023 31.9734 54.5973 31.5995C53.9923 31.2255 53.5034 30.6905 53.1853 30.0544C52.8672 29.4182 52.7326 28.7061 52.7964 27.9977C52.8603 27.2893 53.1202 26.6128 53.5469 26.0438H58.9086V32.1714Z" fill="#FFBF9B"/>
<path d="M66.5658 24.5114H70.3955C71.4113 24.5114 72.3854 24.9149 73.1036 25.6331C73.8218 26.3514 74.2253 27.3255 74.2253 28.3412C74.2253 29.3569 73.8218 30.3311 73.1036 31.0493C72.3854 31.7675 71.4113 32.171 70.3955 32.171H66.5658" fill="#FFBF9B"/>
<path d="M63.5116 0H45.1286C43.4365 0 42.0648 1.37173 42.0648 3.06383C42.0648 4.75594 43.4365 6.12767 45.1286 6.12767H63.5116C65.2037 6.12767 66.5754 4.75594 66.5754 3.06383C66.5754 1.37173 65.2037 0 63.5116 0Z" fill="#C8CDED"/>
<path d="M49.7218 58.2131H52.7856V61.277H49.7218V58.2131Z" fill="#FF8290"/>
<path d="M55.8495 62.8085H58.9134V65.8723H55.8495V62.8085Z" fill="#FF8290"/>
<path d="M58.0246 27.0183V32.5884C58.1255 33.7272 58.6485 34.7871 59.4909 35.5601C60.3333 36.333 61.4342 36.7631 62.5775 36.7659C63.6613 36.7414 64.691 36.2876 65.4405 35.5043C66.1899 34.721 66.5977 33.6722 66.5743 32.5884V25.0682C66.6121 23.334 65.9598 21.6557 64.7608 20.4021C63.5619 19.1486 61.9142 18.4223 60.18 18.3829C50.4999 18.3446 18.1488 28.2837 58.0246 27.0183Z" fill="#EEA981"/>
<path d="M45.1267 34.0084C46.5248 33.2012 47.6857 32.0399 48.4925 30.6415C49.2992 29.2431 49.7234 27.6568 49.7224 26.0424H58.9139V31.4041C58.9139 32.4198 59.3174 33.394 60.0356 34.1122C60.7539 34.8304 61.728 35.2339 62.7437 35.2339C63.7594 35.2339 64.7336 34.8304 65.4518 34.1122C66.17 33.394 66.5735 32.4198 66.5735 31.4041V24.5105C66.5735 22.8853 65.9279 21.3267 64.7788 20.1776C63.6296 19.0284 62.071 18.3828 60.4458 18.3828H48.1905C45.7486 18.382 43.362 19.1106 41.337 20.4754C39.312 21.8401 37.7409 23.7787 36.8252 26.0424H26.7437V47.4892H36.8267C37.5465 49.2653 38.6721 50.8482 40.1133 52.1112C41.5546 53.3742 43.2715 54.2823 45.1267 54.7628V34.0084Z" fill="#FFBF9B"/>
<path d="M17.5538 38.5582C21.0744 36.2834 24.1826 33.4265 26.7453 30.1097V22.9786H17.5538V38.5582Z" fill="#E2E7F6"/>
<path d="M0.69986 42.3252C11.4233 46.1105 7.98872 44.7318 17.551 38.5582V22.9786H0.69986V42.3252Z" fill="white" fill-opacity="0.2"/>
</svg>
