<svg width="72" height="72" viewBox="0 0 72 72" fill="none" xmlns="http://www.w3.org/2000/svg">
<g clip-path="url(#clip0_1430_11480)">
<path d="M42.5087 23.3957L42.7437 12.9465C42.7976 10.6835 42.2395 8.44796 41.1283 6.47591C37.558 0.139943 29.3725 -1.85352 23.2888 2.1311L19.1524 4.84033C18.8835 5.01645 18.5741 5.12079 18.2535 5.14351L16.4596 5.27057C12.6468 5.54061 9.73828 8.79123 9.89225 12.6104L10.2921 23.108L10.4147 27.5884H42.1957L42.5087 23.3957Z" fill="#4D4D4D"/>
<path d="M39.8875 30.3347C42.0429 30.3347 43.7903 28.5874 43.7903 26.4318C43.7903 24.2764 42.043 22.529 39.8875 22.529H33.2095V30.3346H39.8875V30.3347Z" fill="#FFCEBF"/>
<path d="M12.5546 30.3347C10.3992 30.3347 8.65173 28.5874 8.65173 26.4318C8.65173 24.2764 10.399 22.529 12.5546 22.529H18.844V30.3346H12.5546V30.3347Z" fill="#FFB09E"/>
<path d="M29.0019 46.584L19.2638 46.2658C19.2579 46.2657 19.2522 46.2662 19.2464 46.2661C19.2403 46.2659 19.2344 46.2652 19.2283 46.2652C18.4383 46.2652 17.6848 46.4241 16.9972 46.7107L16.5948 47.4733L16.7314 48.7707L17.2835 48.9999C17.8443 48.6452 18.5074 48.4383 19.2181 48.4363L28.931 48.7538C28.9431 48.7541 28.9552 48.7543 28.9672 48.7543C29.5501 48.7543 30.032 48.2914 30.0512 47.7044C30.0706 47.1052 29.6009 46.6036 29.0019 46.584Z" fill="#C9BFC8"/>
<path d="M33.4005 49.1733C33.2848 49.1255 33.2095 49.0141 33.2095 48.8897V34.4629H19.2285V48.8897C19.2285 49.0141 19.1532 49.1255 19.0374 49.1733L15.3331 55.3867L27.0838 64.6087L35.4134 52.1516L33.4005 49.1733Z" fill="#FFCEBF"/>
<path d="M33.2095 38.1621V34.4629H19.2285V48.8897C19.2285 49.0141 19.1532 49.1255 19.0374 49.1733L15.3331 55.3867L16.3055 56.1498L23.0892 52.8725C23.205 52.8248 23.2802 52.7134 23.2802 52.5889V50.5621C23.2802 49.1368 24.4465 47.9853 25.8715 48.0088C25.9391 48.0099 26.0068 48.0105 26.0746 48.0105C27.4893 48.0105 28.8835 47.7707 30.2137 47.2994L30.3262 47.2599C31.3425 46.8992 32.3065 46.4434 33.2097 45.9046V41.2368H23.2804V38.1623H33.2095V38.1621Z" fill="#FFB09E"/>
<path d="M37.8391 19.623L28.6042 18.8842L22.2189 16.1401L18.3138 13.8307L16.203 15.9289L15.6226 24.1084L16.1502 32.3406L18.261 38.4093L21.6533 43.5809L28.4986 44.5308L32.6878 43.904C36.5904 41.6178 39.0728 37.404 39.0728 32.762V21.7792L37.8391 19.623Z" fill="#FFCEBF"/>
<path d="M38.4799 18.4869C37.5488 17.3822 36.1783 16.7456 34.7352 16.7456H26.8457C24.9507 16.7456 23.1246 16.035 21.728 14.7541L19.3894 12.6093L17.9293 11.2702C17.8057 11.1569 17.6165 11.155 17.4907 11.2659L16.5872 12.0622C14.5448 13.8625 13.3748 16.4538 13.3748 19.1764V31.9691C13.3748 37.9173 17.1078 43.2255 22.7054 45.2372C25.2664 45.9263 27.9764 45.8205 30.4759 44.9338C31.256 44.6571 31.996 44.311 32.6917 43.9032C30.9418 44.1557 29.1499 44.0522 27.4255 43.5881C21.8278 41.5764 18.0949 36.2681 18.0949 30.3199V17.5272C18.0949 17.5182 18.0949 17.5091 18.0949 17.5001C18.0981 16.3707 19.457 15.7927 20.2894 16.5561L21.971 18.0984C23.4089 19.4172 25.2892 20.1488 27.2404 20.1488H35.3635C36.7762 20.1488 38.1202 20.7428 39.0731 21.7786V20.1332C39.0728 19.5326 38.8672 18.9465 38.4799 18.4869Z" fill="#FFCEBF"/>
<path d="M52.438 67.998V70.6081C52.438 71.3206 51.8604 71.8981 51.148 71.8981H1.29C0.577563 71.8981 0 71.3206 0 70.6081V67.998C0 61.3107 4.04627 55.289 10.2372 52.7637L19.0374 49.1733L25.7711 60.8997C25.965 61.2369 26.4527 61.2369 26.6466 60.8997L33.4005 49.1733L42.2007 52.7637C48.3917 55.289 52.438 61.3107 52.438 67.998Z" fill="#136AFB"/>
<path d="M7.75752 70.4501C7.75752 63.7627 11.8038 57.7411 17.9948 55.2158L21.5802 53.6013L19.0374 49.1732L10.2372 52.7636C4.04627 55.289 0 61.3107 0 67.998V70.608C0 71.3204 0.577563 71.8981 1.29 71.8981H7.75752V70.4501Z" fill="#075CE9"/>
<path d="M16.9972 46.7105C14.8925 47.5876 13.409 49.6656 13.409 52.0844V64.3289C13.409 64.9283 13.8948 65.4142 14.4944 65.4142C15.0939 65.4142 15.5797 64.9283 15.5797 64.3289V52.0844C15.5797 50.7872 16.2608 49.6468 17.2835 48.9998L16.9972 46.7105Z" fill="#C9BFC8"/>
<path d="M14.4944 67.2953C16.395 67.2953 17.9359 65.7545 17.9359 63.8538C17.9359 61.9531 16.395 60.4123 14.4944 60.4123C12.5937 60.4123 11.0529 61.9531 11.0529 63.8538C11.0529 65.7545 12.5937 67.2953 14.4944 67.2953Z" fill="#EFEDEF"/>
<path d="M54.5857 71.9259C64.2033 71.9259 72 64.1292 72 54.5116C72 44.8939 64.2033 37.0973 54.5857 37.0973C44.968 37.0973 37.1714 44.8939 37.1714 54.5116C37.1714 64.1292 44.968 71.9259 54.5857 71.9259Z" fill="#C9DCFB"/>
<path d="M61.8267 54.9532C61.5069 54.4736 60.8712 54.3303 60.3794 54.6161C60.1052 54.7556 58.2146 55.5993 56.5469 56.3348C56.5346 56.3401 56.5233 56.3468 56.5113 56.3527C56.4994 56.3585 56.4874 56.3631 56.4757 56.3693C56.4699 56.3724 56.4644 56.376 56.4586 56.3792C56.4504 56.3837 56.4424 56.3884 56.4343 56.3932C55.6921 56.7955 55.0669 57.3501 54.5858 58.0059C54.0957 57.3378 53.4568 56.7735 52.6961 56.3695C52.6697 56.3555 52.6427 56.3424 52.6151 56.3307L48.4858 54.5579C47.9344 54.3215 47.2965 54.5763 47.0602 55.1271C46.8237 55.6779 47.0785 56.3161 47.6293 56.5526L51.7145 58.3064C52.8173 58.9094 53.5005 60.0598 53.5005 61.3188V64.0918V67.8412C53.5005 68.4406 53.9863 68.9265 54.5858 68.9265C55.1854 68.9265 55.6712 68.4406 55.6712 67.8412V64.0918V61.3188C55.6712 60.0547 56.3604 58.9009 57.4708 58.2999C61.2894 56.6157 61.4319 56.5209 61.5257 56.4583C62.0244 56.1258 62.1593 55.4518 61.8267 54.9532ZM60.3217 54.6521C60.332 54.6452 60.348 54.6342 60.3704 54.6215C60.3538 54.6313 60.3377 54.6414 60.3217 54.6521Z" fill="#FFDFCF"/>
<path d="M59.4554 50.2067C58.407 48.6968 58.809 46.6196 60.345 45.6098C61.7883 44.6609 63.7207 44.9984 64.757 46.3803L65.7133 47.6555C68.3772 51.2077 67.9569 56.1925 64.7357 59.2485C63.069 60.8296 60.4903 60.9354 58.6996 59.4962C56.6351 57.8368 56.3993 54.7793 58.1848 52.8229L59.3676 51.5271C59.7013 51.1611 59.7378 50.6134 59.4554 50.2067Z" fill="#FF4D4D"/>
<path d="M49.7162 50.2067C50.7646 48.6968 50.3626 46.6196 48.8266 45.6098C47.3833 44.6609 45.4509 44.9984 44.4146 46.3803L43.4583 47.6555C40.7944 51.2077 41.2147 56.1925 44.4359 59.2485C46.1026 60.8296 48.6813 60.9354 50.472 59.4962C52.5365 57.8368 52.7723 54.7793 50.9868 52.8229L49.804 51.5271C49.4701 51.1611 49.4338 50.6134 49.7162 50.2067Z" fill="#FF4D4D"/>
</g>
<defs>
<clipPath id="clip0_1430_11480">
<rect width="72" height="72" fill="white"/>
</clipPath>
</defs>
</svg>
