<svg width="54" height="72" viewBox="0 0 54 72" fill="none" xmlns="http://www.w3.org/2000/svg">
<path d="M35.3147 0H4.53681C3.46885 0.125755 2.49224 0.667056 1.81596 1.50807C1.13968 2.34908 0.817464 3.423 0.918254 4.5V67.5C0.817074 68.5771 1.13915 69.6512 1.8155 70.4923C2.49185 71.3334 3.46869 71.8746 4.53681 72H35.3147C36.3836 71.8757 37.3615 71.335 38.0388 70.4937C38.7161 69.6525 39.0388 68.5778 38.9377 67.5V4.5C39.0384 3.4223 38.7156 2.34778 38.0384 1.50664C37.3612 0.665509 36.3834 0.12467 35.3147 0Z" fill="#666666"/>
<path d="M3.03187 6.38547H36.8215V62.4855H3.03187V6.38547Z" fill="white"/>
<path d="M25.1384 2.13904H16.1927C15.9736 2.13904 15.7635 2.22659 15.6086 2.38243C15.4537 2.53827 15.3667 2.74964 15.3667 2.97004C15.3667 3.19043 15.4537 3.4018 15.6086 3.55764C15.7635 3.71349 15.9736 3.80104 16.1927 3.80104H25.1384C25.3575 3.80104 25.5676 3.71349 25.7225 3.55764C25.8774 3.4018 25.9644 3.19043 25.9644 2.97004C25.9644 2.74964 25.8774 2.53827 25.7225 2.38243C25.5676 2.22659 25.3575 2.13904 25.1384 2.13904Z" fill="#515151"/>
<path d="M11.0367 3.80104C11.4929 3.80104 11.8627 3.42899 11.8627 2.97004C11.8627 2.51109 11.4929 2.13904 11.0367 2.13904C10.5806 2.13904 10.2107 2.51109 10.2107 2.97004C10.2107 3.42899 10.5806 3.80104 11.0367 3.80104Z" fill="#515151"/>
<path d="M20.6674 70.1549C22.1999 70.1549 23.4421 68.9051 23.4421 67.3634C23.4421 65.8217 22.1999 64.5719 20.6674 64.5719C19.135 64.5719 17.8928 65.8217 17.8928 67.3634C17.8928 68.9051 19.135 70.1549 20.6674 70.1549Z" fill="#515151"/>
<path d="M47.1362 18H23.2808C19.9871 18 17.317 20.6863 17.317 24V48C17.317 51.3137 19.9871 54 23.2808 54H47.1362C50.4299 54 53.1 51.3137 53.1 48V24C53.1 20.6863 50.4299 18 47.1362 18Z" fill="#136AFB"/>
<path d="M38.1917 27H26.264C24.6172 27 23.2821 28.3431 23.2821 30V42C23.2821 43.6569 24.6172 45 26.264 45H38.1917C39.8386 45 41.1736 43.6569 41.1736 42V30C41.1736 28.3431 39.8386 27 38.1917 27Z" fill="white"/>
<path d="M48.4498 40.81C48.4492 40.972 48.4075 41.1311 48.3286 41.2724C48.2497 41.4136 48.1362 41.5322 47.999 41.617C47.8617 41.7017 47.7052 41.7498 47.5443 41.7566C47.3834 41.7634 47.2235 41.7288 47.0796 41.6559L40.8921 38.9035V33.2034L47.0796 30.457C47.2235 30.3841 47.3834 30.3495 47.5443 30.3563C47.7052 30.3631 47.8617 30.4112 47.999 30.4959C48.1362 30.5807 48.2497 30.6993 48.3286 30.8405C48.4075 30.9818 48.4492 31.1409 48.4498 31.3029V40.81Z" fill="#E6F3FF"/>
</svg>
