<svg width="48" height="49" viewBox="0 0 48 49" fill="none" xmlns="http://www.w3.org/2000/svg">
<path d="M24.0015 7C23.5602 7.00011 23.137 7.17545 22.825 7.48749C22.5129 7.79953 22.3376 8.22271 22.3375 8.664V27.6472L15.9739 21.2836C15.8193 21.1291 15.6359 21.0065 15.434 20.9229C15.2321 20.8393 15.0157 20.7963 14.7971 20.7963C14.3558 20.7963 13.9325 20.9717 13.6205 21.2838C13.3084 21.5959 13.1331 22.0192 13.1332 22.4605C13.1332 22.9019 13.3086 23.3251 13.6207 23.6372L22.8247 32.84C23.1369 33.152 23.5601 33.3272 24.0015 33.3272C24.4428 33.3272 24.8661 33.152 25.1783 32.84L34.3823 23.6356C34.6944 23.3235 34.8698 22.9003 34.8698 22.4589C34.8698 22.0176 34.6945 21.5943 34.3825 21.2822C34.0704 20.9701 33.6472 20.7947 33.2058 20.7947C32.7645 20.7947 32.3412 20.9699 32.0291 21.282L25.6655 27.6472V8.664C25.6654 8.22271 25.49 7.79953 25.178 7.48749C24.866 7.17545 24.4428 7.00011 24.0015 7Z" fill="url(#paint0_linear_1430_11562)"/>
<path d="M7.664 29.0021C7.22268 29.0021 6.79943 29.1774 6.48737 29.4895C6.17531 29.8015 6 30.2248 6 30.6661V36.1493C6.00201 37.9656 6.72444 39.707 8.00877 40.9913C9.29311 42.2757 11.0345 42.9981 12.8508 43.0001H35.1492C36.9655 42.9981 38.7069 42.2757 39.9912 40.9913C41.2756 39.707 41.998 37.9656 42 36.1493V30.6661C42 30.4476 41.957 30.2312 41.8733 30.0293C41.7897 29.8274 41.6671 29.644 41.5126 29.4895C41.3581 29.335 41.1747 29.2124 40.9728 29.1288C40.7709 29.0451 40.5545 29.0021 40.336 29.0021C40.1175 29.0021 39.9011 29.0451 39.6992 29.1288C39.4973 29.2124 39.3139 29.335 39.1594 29.4895C39.0049 29.644 38.8823 29.8274 38.7987 30.0293C38.715 30.2312 38.672 30.4476 38.672 30.6661V36.1493C38.6709 37.0833 38.2994 37.9787 37.639 38.6391C36.9786 39.2995 36.0832 39.671 35.1492 39.6721H12.8508C11.9168 39.671 11.0214 39.2995 10.361 38.6391C9.70055 37.9787 9.32906 37.0833 9.328 36.1493V30.6661C9.32805 30.4476 9.28505 30.2312 9.20144 30.0293C9.11784 29.8273 8.99527 29.6439 8.84074 29.4894C8.68622 29.3348 8.50276 29.2123 8.30085 29.1287C8.09894 29.0451 7.88253 29.002 7.664 29.0021Z" fill="url(#paint1_linear_1430_11562)"/>
<defs>
<linearGradient id="paint0_linear_1430_11562" x1="24.0015" y1="7" x2="24.0015" y2="33.3272" gradientUnits="userSpaceOnUse">
<stop stop-color="#53A3FD"/>
<stop offset="1" stop-color="#0557FA"/>
</linearGradient>
<linearGradient id="paint1_linear_1430_11562" x1="24" y1="29.0021" x2="24" y2="43.0001" gradientUnits="userSpaceOnUse">
<stop stop-color="#53A3FD"/>
<stop offset="1" stop-color="#0557FA"/>
</linearGradient>
</defs>
</svg>
