<svg width="48" height="49" viewBox="0 0 48 49" fill="none" xmlns="http://www.w3.org/2000/svg">
<path d="M37.438 16.2828L30.5086 15.2759L27.4096 8.99681C26.2126 6.57137 22.7515 6.5721 21.555 8.99673L18.456 15.2758L11.5266 16.2828C8.84979 16.6717 7.7813 19.9635 9.71743 21.8509L14.7316 26.7386L13.548 33.6398C13.0908 36.3058 15.891 38.3391 18.2845 37.0812L24.4824 33.8226L30.6803 37.0812C33.0704 38.3376 35.8739 36.3053 35.4168 33.6398L34.2332 26.7385L39.2474 21.8509C41.1839 19.9628 40.1136 16.6716 37.438 16.2828ZM37.294 19.8473L31.7531 25.2482C31.4234 25.5697 31.273 26.0327 31.3508 26.4866L32.6588 34.113C32.7245 34.496 32.326 34.7852 31.9822 34.6046L25.1333 31.0039C24.7257 30.7897 24.2387 30.7897 23.8312 31.0039L16.9823 34.6046C16.6383 34.7853 16.24 34.4959 16.3057 34.113L17.6137 26.4866C17.6915 26.0327 17.5411 25.5697 17.2113 25.2482L11.6704 19.8473C11.3921 19.576 11.5444 19.1078 11.9289 19.0518L19.5862 17.9391C20.0418 17.8729 20.4358 17.5868 20.6396 17.1738L24.0641 10.2351C24.236 9.88684 24.7285 9.88659 24.9004 10.2352L28.3249 17.1738C28.5287 17.5868 28.9227 17.8729 29.3783 17.9391L37.0356 19.0518C37.4201 19.1078 37.5723 19.5761 37.294 19.8473Z" fill="url(#paint0_linear_1430_11570)"/>
<path d="M14.5432 7.87973L12.87 5.57675C12.4157 4.95176 11.5408 4.81306 10.9158 5.26737C10.2907 5.72152 10.1521 6.59646 10.6064 7.22154L12.2796 9.52443C12.7341 10.1497 13.6089 10.2879 14.2337 9.83381C14.8588 9.37974 14.9974 8.5048 14.5432 7.87973Z" fill="url(#paint1_linear_1430_11570)"/>
<path d="M8.99226 28.5179C8.75362 27.7831 7.96435 27.3806 7.22934 27.6197L4.46705 28.5172C3.73221 28.756 3.33012 29.5452 3.56883 30.2802C3.80796 31.0162 4.59854 31.4169 5.33174 31.1784L8.09404 30.2808C8.82896 30.042 9.23105 29.2527 8.99226 28.5179Z" fill="url(#paint2_linear_1430_11570)"/>
<path d="M38.0533 5.26732C37.4283 4.81317 36.5534 4.95163 36.0991 5.57671L34.4259 7.8796C33.9717 8.50467 34.1103 9.37969 34.7354 9.83376C35.3607 10.2881 36.2355 10.1492 36.6895 9.52438L38.3628 7.22149C38.8169 6.59642 38.6784 5.72139 38.0533 5.26732Z" fill="url(#paint3_linear_1430_11570)"/>
<path d="M44.5015 28.5172L41.7392 27.6197C41.0044 27.3805 40.2151 27.783 39.9763 28.5179C39.7375 29.2527 40.1396 30.0421 40.8745 30.2808L43.6368 31.1784C44.3701 31.4168 45.1606 31.0161 45.3997 30.2801C45.6385 29.5453 45.2363 28.756 44.5015 28.5172Z" fill="url(#paint4_linear_1430_11570)"/>
<path d="M24.478 39.3629C23.7053 39.3629 23.0789 39.9893 23.0789 40.7619V43.6014C23.0789 44.3741 23.7053 45.0005 24.478 45.0005C25.2506 45.0005 25.877 44.3741 25.877 43.6014V40.7619C25.8771 39.9892 25.2507 39.3629 24.478 39.3629Z" fill="url(#paint5_linear_1430_11570)"/>
<defs>
<linearGradient id="paint0_linear_1430_11570" x1="24.4823" y1="7.17799" x2="24.4823" y2="37.4629" gradientUnits="userSpaceOnUse">
<stop stop-color="#53A3FD"/>
<stop offset="1" stop-color="#0557FA"/>
</linearGradient>
<linearGradient id="paint1_linear_1430_11570" x1="12.5748" y1="5" x2="12.5748" y2="10.1012" gradientUnits="userSpaceOnUse">
<stop stop-color="#53A3FD"/>
<stop offset="1" stop-color="#0557FA"/>
</linearGradient>
<linearGradient id="paint2_linear_1430_11570" x1="6.28056" y1="27.5507" x2="6.28056" y2="31.2473" gradientUnits="userSpaceOnUse">
<stop stop-color="#53A3FD"/>
<stop offset="1" stop-color="#0557FA"/>
</linearGradient>
<linearGradient id="paint3_linear_1430_11570" x1="36.3943" y1="5" x2="36.3943" y2="10.1011" gradientUnits="userSpaceOnUse">
<stop stop-color="#53A3FD"/>
<stop offset="1" stop-color="#0557FA"/>
</linearGradient>
<linearGradient id="paint4_linear_1430_11570" x1="42.688" y1="27.5506" x2="42.688" y2="31.2472" gradientUnits="userSpaceOnUse">
<stop stop-color="#53A3FD"/>
<stop offset="1" stop-color="#0557FA"/>
</linearGradient>
<linearGradient id="paint5_linear_1430_11570" x1="24.478" y1="39.3629" x2="24.478" y2="45.0005" gradientUnits="userSpaceOnUse">
<stop stop-color="#53A3FD"/>
<stop offset="1" stop-color="#0557FA"/>
</linearGradient>
</defs>
</svg>
