<svg width="48" height="49" viewBox="0 0 48 49" fill="none" xmlns="http://www.w3.org/2000/svg">
<mask id="mask0_1430_11595" style="mask-type:luminance" maskUnits="userSpaceOnUse" x="3" y="5" width="41" height="40">
<path d="M3.5 5H43.5V45H3.5V5Z" fill="white"/>
</mask>
<g mask="url(#mask0_1430_11595)">
<path d="M25.6286 6.17187V9.29688" stroke="url(#paint0_linear_1430_11595)" stroke-width="2.75" stroke-miterlimit="10" stroke-linecap="round" stroke-linejoin="round"/>
<path d="M36.5661 6.17187V9.29688" stroke="url(#paint1_linear_1430_11595)" stroke-width="2.75" stroke-miterlimit="10" stroke-linecap="round" stroke-linejoin="round"/>
</g>
<path d="M27.4186 28.7425L31.0958 37.4219L34.7731 28.7425" stroke="url(#paint2_linear_1430_11595)" stroke-width="2.75" stroke-miterlimit="10" stroke-linecap="round" stroke-linejoin="round"/>
<path d="M36.5661 7.73437H38.4188C41.014 7.73437 42.8877 10.2184 42.1747 12.7137L39.0644 23.5998C38.0481 27.157 34.7968 29.6094 31.0974 29.6094C27.3979 29.6094 24.1467 27.157 23.1304 23.5998L20.02 12.7137C19.3071 10.2184 21.1808 7.73437 23.7761 7.73437H25.6286" stroke="url(#paint3_linear_1430_11595)" stroke-width="2.75" stroke-miterlimit="10" stroke-linecap="round" stroke-linejoin="round"/>
<path d="M9.35754 34.2969V30.4687C9.35754 27.4053 11.841 24.9219 14.9044 24.9219C17.9679 24.9219 20.4513 27.4053 20.4513 30.4687V38.5056C20.4513 41.4452 22.8343 43.8281 25.7738 43.8281C28.7133 43.8281 31.0963 41.4452 31.0963 38.5056V37.4219" stroke="url(#paint4_linear_1430_11595)" stroke-width="2.75" stroke-miterlimit="10" stroke-linecap="round" stroke-linejoin="round"/>
<path d="M4.67004 38.9844C4.67004 41.5732 6.76872 43.6719 9.35754 43.6719C11.9464 43.6719 14.045 41.5732 14.045 38.9844C14.045 36.3955 11.9464 34.2969 9.35754 34.2969C6.76872 34.2969 4.67004 36.3955 4.67004 38.9844Z" stroke="url(#paint5_linear_1430_11595)" stroke-width="2.75" stroke-miterlimit="10" stroke-linecap="round" stroke-linejoin="round"/>
<path d="M8.18555 38.9844C8.18555 39.6316 8.71023 40.1562 9.35742 40.1562C10.0046 40.1562 10.5293 39.6316 10.5293 38.9844C10.5293 38.3372 10.0046 37.8125 9.35742 37.8125C8.71023 37.8125 8.18555 38.3372 8.18555 38.9844Z" fill="url(#paint6_linear_1430_11595)"/>
<defs>
<linearGradient id="paint0_linear_1430_11595" x1="26.1286" y1="9.29688" x2="26.1286" y2="6.17187" gradientUnits="userSpaceOnUse">
<stop stop-color="#53A3FD"/>
<stop offset="1" stop-color="#0557FA"/>
</linearGradient>
<linearGradient id="paint1_linear_1430_11595" x1="37.0661" y1="9.29688" x2="37.0661" y2="6.17187" gradientUnits="userSpaceOnUse">
<stop stop-color="#53A3FD"/>
<stop offset="1" stop-color="#0557FA"/>
</linearGradient>
<linearGradient id="paint2_linear_1430_11595" x1="31.0958" y1="37.4219" x2="31.0958" y2="28.7425" gradientUnits="userSpaceOnUse">
<stop stop-color="#53A3FD"/>
<stop offset="1" stop-color="#0557FA"/>
</linearGradient>
<linearGradient id="paint3_linear_1430_11595" x1="31.0974" y1="29.6094" x2="31.0974" y2="7.73437" gradientUnits="userSpaceOnUse">
<stop stop-color="#53A3FD"/>
<stop offset="1" stop-color="#0557FA"/>
</linearGradient>
<linearGradient id="paint4_linear_1430_11595" x1="20.2269" y1="43.8281" x2="20.2269" y2="24.9219" gradientUnits="userSpaceOnUse">
<stop stop-color="#53A3FD"/>
<stop offset="1" stop-color="#0557FA"/>
</linearGradient>
<linearGradient id="paint5_linear_1430_11595" x1="9.35754" y1="43.6719" x2="9.35754" y2="34.2969" gradientUnits="userSpaceOnUse">
<stop stop-color="#53A3FD"/>
<stop offset="1" stop-color="#0557FA"/>
</linearGradient>
<linearGradient id="paint6_linear_1430_11595" x1="9.35742" y1="40.1562" x2="9.35742" y2="37.8125" gradientUnits="userSpaceOnUse">
<stop stop-color="#53A3FD"/>
<stop offset="1" stop-color="#0557FA"/>
</linearGradient>
</defs>
</svg>
