<svg width="48" height="49" viewBox="0 0 48 49" fill="none" xmlns="http://www.w3.org/2000/svg">
<path d="M37.0306 41.3176H35.6081C35.3509 39.0578 34.4463 36.9205 33.0033 35.1625C32.994 35.1491 32.9899 35.1341 32.9801 35.1211C31.6409 33.5299 30.1395 32.0825 28.5004 30.8024C26.5959 29.2197 24.9596 27.8517 24.9596 26.5641C24.9716 26.1723 25.0924 25.7915 25.3083 25.4643C25.04 25.2765 24.7718 25.0753 24.517 24.8607C24.0761 24.5091 23.6594 24.1283 23.2696 23.7207C22.6431 24.5379 22.2952 25.5345 22.2771 26.5641C22.2771 29.1124 24.4633 30.9231 26.7836 32.8544C27.4677 33.4312 28.1517 33.9945 28.8223 34.6114H13.0495C13.7201 33.9945 14.4041 33.4312 15.0882 32.8544C17.4085 30.9231 19.5947 29.1124 19.5947 26.5641C19.5947 24.0158 17.3951 22.1917 15.0748 20.2604C12.4594 18.0876 9.52209 15.6465 8.95878 11.8107H19.8763C20.0537 10.8869 20.3372 9.9868 20.7213 9.1282H4.84122C4.48551 9.1282 4.14436 9.26951 3.89284 9.52104C3.64131 9.77257 3.5 10.1137 3.5 10.4694C3.5 10.8251 3.64131 11.1663 3.89284 11.4178C4.14436 11.6693 4.48551 11.8107 4.84122 11.8107H6.26292C6.81456 16.8705 10.418 19.8797 13.358 22.3258C15.2625 23.9085 16.9122 25.2765 16.9122 26.5641C16.9122 27.8517 15.2759 29.2197 13.3714 30.8024C11.7322 32.0825 10.2309 33.5299 8.89172 35.1211C8.88206 35.1345 8.8783 35.1494 8.86851 35.1625C7.42546 36.9205 6.52094 39.0578 6.26372 41.3176H4.84122C4.48551 41.3176 4.14436 41.4589 3.89284 41.7104C3.64131 41.9619 3.5 42.3031 3.5 42.6588C3.5 43.0145 3.64131 43.3556 3.89284 43.6072C4.14436 43.8587 4.48551 44 4.84122 44H37.0306C37.3863 44 37.7274 43.8587 37.979 43.6072C38.2305 43.3556 38.3718 43.0145 38.3718 42.6588C38.3718 42.3031 38.2305 41.9619 37.979 41.7104C37.7274 41.4589 37.3863 41.3176 37.0306 41.3176Z" fill="url(#paint0_linear_1430_11625)"/>
<path d="M32.7308 4C29.8842 4.03098 27.163 5.17554 25.15 7.18848C23.1371 9.20143 21.9925 11.9227 21.9615 14.7692C21.9957 17.6148 23.1412 20.3342 25.1535 22.3465C27.1658 24.3588 29.8852 25.5043 32.7308 25.5385C35.5869 25.5385 38.3261 24.4039 40.3458 22.3842C42.3654 20.3646 43.5 17.6254 43.5 14.7692C43.5 11.9131 42.3654 9.17386 40.3458 7.15423C38.3261 5.13461 35.5869 4 32.7308 4ZM36.7692 16.1154H32.7308C32.3737 16.1154 32.0313 15.9736 31.7789 15.7211C31.5264 15.4687 31.3846 15.1263 31.3846 14.7692V10.7308C31.3846 10.3737 31.5264 10.0313 31.7789 9.77889C32.0313 9.52644 32.3737 9.38462 32.7308 9.38462C33.0878 9.38462 33.4302 9.52644 33.6826 9.77889C33.9351 10.0313 34.0769 10.3737 34.0769 10.7308V13.4231H36.7692C37.1262 13.4231 37.4686 13.5649 37.7211 13.8174C37.9736 14.0698 38.1154 14.4122 38.1154 14.7692C38.1154 15.1263 37.9736 15.4687 37.7211 15.7211C37.4686 15.9736 37.1262 16.1154 36.7692 16.1154Z" fill="url(#paint1_linear_1430_11625)"/>
<defs>
<linearGradient id="paint0_linear_1430_11625" x1="20.9359" y1="9.1282" x2="20.9359" y2="44" gradientUnits="userSpaceOnUse">
<stop stop-color="#53A3FD"/>
<stop offset="1" stop-color="#0557FA"/>
</linearGradient>
<linearGradient id="paint1_linear_1430_11625" x1="32.7308" y1="4" x2="32.7308" y2="25.5385" gradientUnits="userSpaceOnUse">
<stop stop-color="#53A3FD"/>
<stop offset="1" stop-color="#0557FA"/>
</linearGradient>
</defs>
</svg>
